<svg xmlns="http://www.w3.org/2000/svg" viewBox="0 0 35 35"><defs><style>.cls-1{fill:#b9c200;}.cls-2{fill:#fff;stroke:#b9c200;stroke-miterlimit:10;stroke-width:0.5px;}</style></defs><title>icon</title><g id="Download"><path class="cls-1" d="M12.25,28.15a3,3,0,1,0,3,3A3,3,0,0,0,12.25,28.15Z"/><circle class="cls-1" cx="26.58" cy="31.18" r="3.03"/><path class="cls-1" d="M33.33,7.85,27.4,20.16h2.39a3.15,3.15,0,1,1,0,6.3H8.05a.65.65,0,0,1-.65-.65.66.66,0,0,1,.65-.66H29.79a1.84,1.84,0,1,0,0-3.68H8.05a.63.63,0,0,1-.55-.31A.56.56,0,0,1,7.41,21l-.26-1.2L4.6,7.7a.27.27,0,0,0,0-.09L3.86,4.06H1.28A.66.66,0,0,1,.63,3.4a.65.65,0,0,1,.65-.65H4.39A.64.64,0,0,1,5,3.27L5.8,6.91H32.74a.66.66,0,0,1,.56.31A.64.64,0,0,1,33.33,7.85Z"/><path class="cls-2" d="M27.93,19.09a1.73,1.73,0,0,1-3,1.23,1.71,1.71,0,0,1-.5-1.23V9.43L21,12.84a1.66,1.66,0,0,1-1.24.49,1.63,1.63,0,0,1-1.21-.53,1.67,1.67,0,0,1-.5-1.23,1.73,1.73,0,0,1,.53-1.22L25,4.07a1.69,1.69,0,0,1,1.22-.49,1.67,1.67,0,0,1,1.22.51l6.28,6.28a1.68,1.68,0,0,1,.51,1.23,1.64,1.64,0,0,1-.51,1.22,1.68,1.68,0,0,1-1.23.51,1.64,1.64,0,0,1-1.22-.51L27.93,9.5Z"/></g></svg>