<svg xmlns="http://www.w3.org/2000/svg" viewBox="0 0 35 35"><defs><style>.cls-1{fill:#b9c200;}.cls-2{fill:none;stroke:#b9c200;stroke-miterlimit:10;stroke-width:0.5px;}</style></defs><title>icon</title><g id="Paste"><circle class="cls-1" cx="2.79" cy="21.86" r="2.16"/><path class="cls-1" d="M2.79,27.63A2.16,2.16,0,1,0,5,29.79,2.16,2.16,0,0,0,2.79,27.63Z"/><path class="cls-1" d="M10,15.38h6.28a9.59,9.59,0,0,1-1.14-2.89H10a1.45,1.45,0,0,0,0,2.89Z"/><path class="cls-1" d="M2.79,11.77A2.17,2.17,0,1,0,5,13.94,2.16,2.16,0,0,0,2.79,11.77Z"/><path class="cls-1" d="M20.8,20.42H10a1.44,1.44,0,1,0,0,2.88H20.8a1.44,1.44,0,1,0,0-2.88Z"/><path class="cls-1" d="M20.8,28.35H10a1.44,1.44,0,1,0,0,2.88H20.8a1.44,1.44,0,1,0,0-2.88Z"/><path class="cls-2" d="M33.36,8.65l-5.81,0L27.5,2.89a1.06,1.06,0,1,0-2.11,0l0,5.82-5.81,0a1.06,1.06,0,0,0,0,2.12l5.81-.05.05,5.81a1.06,1.06,0,1,0,2.11,0l-.05-5.81,5.82,0a1.06,1.06,0,0,0,0-2.12Z"/></g></svg>