<svg id="Copy" xmlns="http://www.w3.org/2000/svg" viewBox="0 0 35 35"><defs><style>.cls-1{fill:#b9c200;}.cls-2{fill:#fff;stroke:#b9c200;stroke-miterlimit:10;stroke-width:0.5px;}</style></defs><title>icon</title><circle class="cls-1" cx="2.48" cy="22.65" r="2.12"/><path class="cls-1" d="M2.48,28.29A2.12,2.12,0,1,0,4.6,30.41,2.11,2.11,0,0,0,2.48,28.29Z"/><path class="cls-1" d="M9.53,16.3h6.15a9.15,9.15,0,0,1-1.12-2.82h-5a1.41,1.41,0,0,0,0,2.82Z"/><path class="cls-1" d="M2.48,12.78A2.12,2.12,0,1,0,4.6,14.89,2.11,2.11,0,0,0,2.48,12.78Z"/><path class="cls-1" d="M20.11,21.24H9.53a1.41,1.41,0,1,0,0,2.82H20.11a1.41,1.41,0,0,0,0-2.82Z"/><path class="cls-1" d="M20.11,29H9.53a1.41,1.41,0,0,0,0,2.82H20.11a1.41,1.41,0,0,0,0-2.82Z"/><rect class="cls-2" x="21.63" y="1.48" width="12.58" height="12.58" rx="2.29" ry="2.29"/><rect class="cls-2" x="17.86" y="5.25" width="12.58" height="12.58" rx="2.29" ry="2.29"/><path class="cls-1" d="M26.87,11.12h-2.3V8.82a.42.42,0,0,0-.84,0v2.3h-2.3a.42.42,0,1,0,0,.84h2.3v2.3a.42.42,0,1,0,.84,0V12h2.3a.42.42,0,0,0,0-.84Z"/></svg>