<svg xmlns="http://www.w3.org/2000/svg" viewBox="0 0 35 35"><defs><style>.cls-1{fill:#b9c200;}.cls-2{fill:#fff;stroke:#b9c200;stroke-miterlimit:10;stroke-width:0.5px;}</style></defs><title>icon</title><g id="Download"><path class="cls-1" d="M12.35,28.2a3,3,0,1,0,3,3A3,3,0,0,0,12.35,28.2Z"/><circle class="cls-1" cx="26.57" cy="31.21" r="3.01"/><path class="cls-1" d="M33.28,8.05,27.39,20.26h2.38a3.13,3.13,0,1,1,0,6.26H8.18a.65.65,0,0,1,0-1.3H29.77a1.83,1.83,0,0,0,0-3.66H8.18a.64.64,0,0,1-.55-.3.78.78,0,0,1-.09-.21l-.25-1.19L4.76,7.9s0-.06,0-.09L4,4.28H1.46a.65.65,0,0,1,0-1.3H4.54a.65.65,0,0,1,.64.51l.76,3.62H32.69a.66.66,0,0,1,.56.31A.67.67,0,0,1,33.28,8.05Z"/><path class="cls-2" d="M24.21,5.16A1.76,1.76,0,0,1,26,3.41a1.71,1.71,0,0,1,1.24.52,1.68,1.68,0,0,1,.51,1.23v9.73l3.53-3.44a1.75,1.75,0,0,1,3,1.28A1.66,1.66,0,0,1,33.66,14l-6.49,6.33a1.71,1.71,0,0,1-1.23.49,1.67,1.67,0,0,1-1.22-.51L18.4,13.94a1.75,1.75,0,0,1,2.47-2.47l3.34,3.34Z"/></g></svg>